<?xml version="1.0" encoding="UTF-8" standalone="no"?>
<!-- Uploaded to: SVG Repo, www.svgrepo.com, Generator: SVG Repo Mixer Tools -->

<svg
   fill="#000000"
   width="800px"
   height="800px"
   viewBox="0 0 512 512"
   version="1.1"
   xml:space="preserve"
   id="svg8"
   sodipodi:docname="api-reference.svg"
   inkscape:version="1.1.2 (0a00cf5339, 2022-02-04)"
   xmlns:inkscape="http://www.inkscape.org/namespaces/inkscape"
   xmlns:sodipodi="http://sodipodi.sourceforge.net/DTD/sodipodi-0.dtd"
   xmlns="http://www.w3.org/2000/svg"
   xmlns:svg="http://www.w3.org/2000/svg"><defs
   id="defs12" /><sodipodi:namedview
   id="namedview10"
   pagecolor="#ffffff"
   bordercolor="#666666"
   borderopacity="1.0"
   inkscape:pageshadow="2"
   inkscape:pageopacity="0.0"
   inkscape:pagecheckerboard="0"
   showgrid="false"
   inkscape:zoom="1.09125"
   inkscape:cx="219.47308"
   inkscape:cy="400"
   inkscape:window-width="2560"
   inkscape:window-height="1388"
   inkscape:window-x="1920"
   inkscape:window-y="0"
   inkscape:window-maximized="1"
   inkscape:current-layer="svg8" />

<g
   id="_x31_96_x2C__Api_x2C__app_x2C__coding_x2C__developer_x2C__software"
   style="fill:#00457c;fill-opacity:1">

<g
   id="g4"
   style="fill:#00457c;fill-opacity:1">

<path
   d="M366.748,485.999c-1.433-3.167-2.637-6.446-3.58-9.876l-0.074-0.227    c-1.586-5.881-2.396-12.139-2.281-18.585c0.303-18.356,8.048-34.905,20.299-46.741c12.214-11.799,28.989-18.961,47.344-18.66    c8.163,0.151,15.947,1.734,23.11,4.524c4.372,1.696,8.5,3.882,12.363,6.445v-57.599c-2.151-0.678-4.299-1.319-6.485-1.885    c-3.147-0.829-6.408-1.545-9.725-2.111c-1.94-0.338-3.523-1.922-3.787-3.957l-5.675-42.785l-16.267-0.264l-7.142,42.559    c-0.319,1.96-1.885,3.543-3.941,3.807c-4.183,0.604-8.311,1.396-12.381,2.413c-4.11,1.018-8.181,2.261-12.14,3.731    c-1.846,0.641-3.994,0.075-5.24-1.545l-26.311-34.229l-14.209,7.917l14.964,40.107c0.923,1.923,0.414,4.26-1.319,5.616    c-3.395,2.639-6.577,5.429-9.557,8.293c-2.997,2.903-5.899,5.994-8.63,9.273c-1.263,1.508-3.394,2.074-5.296,1.319l-39.941-16.511    l-8.367,13.947l33.039,27.216c1.716,1.208,2.453,3.507,1.621,5.542c-1.582,3.883-2.977,7.916-4.127,11.986    c-1.147,4.034-2.092,8.144-2.808,12.327c-0.341,1.923-1.923,3.506-3.977,3.77l-42.767,5.692l-0.302,16.284l42.598,7.124    c1.941,0.34,3.542,1.885,3.806,3.959c0.34,2.487,0.754,4.938,1.245,7.312c0.263,1.244,0.526,2.488,0.846,3.809H366.748z     M463.929,414.34c-4.656-3.883-9.952-7.012-15.719-9.273c-6.201-2.412-12.911-3.808-19.905-3.921    c-15.811-0.263-30.27,5.919-40.806,16.097c-10.535,10.178-17.207,24.39-17.47,40.221c-0.078,5.466,0.604,10.856,1.996,15.983    l0.057,0.188c1.189,4.373,2.885,8.48,4.994,12.364h86.853V414.34z M374.627,149.115h82.743l-82.743-82.742V149.115z     M463.929,158.388H369.99c-2.563,0-4.636-2.073-4.636-4.637V59.814h-2.411L96.586,59.776c0,142.074,0,284.147,0,426.223h205.589    l-0.414-1.998l-0.828-4.523l-43.198-7.238c-2.376-0.377-4.036-2.524-3.846-4.9l0.414-23.974c0.039-2.3,1.772-4.186,4.014-4.486    l43.389-5.767c0.677-3.355,1.487-6.673,2.411-9.914c0.943-3.317,2.018-6.597,3.225-9.764l-33.796-27.856    c-1.79-1.471-2.166-4.033-1.036-5.956l12.477-20.733c1.189-1.997,3.675-2.789,5.77-1.884l40.447,16.698    c2.26-2.525,4.637-5.013,7.125-7.426c2.467-2.374,5.012-4.637,7.611-6.785l-15.34-41.05c-0.793-2.187,0.112-4.562,2.074-5.654    l21.145-11.761c2.035-1.094,4.523-0.566,5.899,1.244l26.708,34.717c3.242-1.093,6.559-2.073,9.896-2.902    c3.26-0.829,6.576-1.508,9.971-2.073l7.236-43.161c0.396-2.375,2.544-4.033,4.899-3.846l23.956,0.377    c2.319,0.038,4.204,1.772,4.506,4.034l5.748,43.388c2.394,0.489,4.787,1.018,7.143,1.658c1.396,0.34,2.79,0.754,4.147,1.168    V158.388z M87.314,459.536V55.178v-0.113v-0.113l0,0l0.018-0.113l0,0l0.018-0.113l0,0l0.056-0.489h0.021    c0.414-2.11,2.281-3.694,4.524-3.694l265.374,0.037l-0.073-8.783h-9.143H71.255c0,139.248,0,278.494,0,417.741H87.314z     M61.982,443.742V37.159v-0.112v-0.113l0,0L62,36.82l0,0l0.018-0.113l0,0l0.06-0.453h0.018c0.414-2.11,2.281-3.731,4.524-3.731    h275.987l-0.056-6.483L48.071,26.002v417.74H61.982z M237.773,277.58c-4.787-4.938-11.476-8.066-18.885-8.18    c-7.426-0.15-14.231,2.752-19.169,7.539c-4.938,4.787-8.064,11.46-8.198,18.885c-0.133,7.427,2.769,14.25,7.56,19.188    c4.787,4.938,11.458,8.066,18.885,8.18c7.426,0.151,14.21-2.752,19.169-7.539c4.956-4.787,8.086-11.459,8.198-18.885    C245.463,289.342,242.561,282.557,237.773,277.58z M219.022,260.166c9.988,0.15,18.979,4.371,25.405,11.006    c6.409,6.672,10.29,15.757,10.139,25.746c-0.168,9.951-4.373,18.961-11.023,25.369c-6.654,6.408-15.74,10.291-25.728,10.141    c-9.971-0.151-18.962-4.373-25.37-11.008c-6.426-6.634-10.308-15.756-10.139-25.746c0.151-9.951,4.373-18.961,11.006-25.369    C199.948,263.897,209.069,260.015,219.022,260.166z M137.184,294.92l-0.039,2.188l19.751,3.316    c2.074,0.34,3.583,1.998,3.829,3.996c0.281,2.035,0.677,4.033,1.147,5.993c0.509,1.998,1.13,3.996,1.85,5.956    c0.733,2.035-0.039,4.26-1.755,5.428l-15.663,12.025l2.13,3.807l18.79-7.011c1.923-0.716,4.036-0.075,5.24,1.47    c1.263,1.621,2.639,3.205,4.092,4.713c1.45,1.507,2.958,2.902,4.503,4.221c1.586,1.32,2.074,3.469,1.319,5.277l-7.651,18.547    l3.77,2.262l12.739-15.455c1.302-1.584,3.471-2.074,5.278-1.357c1.906,0.754,3.885,1.471,5.843,2.035    c1.997,0.566,4.033,1.018,6.068,1.357c2.113,0.377,3.657,2.111,3.829,4.184l2.618,19.641l4.373,0.074l3.299-19.752    c0.337-2.035,1.979-3.543,3.92-3.807c2.092-0.303,4.127-0.717,6.089-1.207c2.036-0.49,4.033-1.131,5.956-1.809    c1.979-0.717,4.145,0,5.313,1.658l12.14,15.756l3.807-2.148l-7.012-18.771c-0.716-1.923-0.056-4.033,1.488-5.24    c1.678-1.318,3.242-2.676,4.675-4.07c1.487-1.434,2.902-2.979,4.239-4.562c1.376-1.659,3.695-2.073,5.541-1.169l18.285,7.539    l2.242-3.77l-15.438-12.741c-1.601-1.319-2.092-3.468-1.358-5.277c0.776-1.96,1.453-3.92,2.039-5.88    c0.565-1.998,1.019-3.996,1.355-6.031c0.379-2.111,2.112-3.656,4.165-3.846l19.64-2.601l0.077-4.372l-19.734-3.318    c-2.074-0.339-3.601-2.035-3.846-3.995c-0.264-2.036-0.678-4.033-1.148-5.993c-0.509-1.998-1.133-3.996-1.828-5.956    c-0.755-1.998,0.018-4.222,1.733-5.391l15.663-12.063l-2.13-3.808l-18.772,7.012c-1.923,0.717-4.036,0.075-5.239-1.508    c-1.264-1.584-2.64-3.166-4.054-4.637c-1.453-1.47-2.979-2.902-4.58-4.26c-1.66-1.395-2.091-3.693-1.186-5.541l7.539-18.282    l-3.752-2.262l-12.739,15.456c-1.32,1.582-3.467,2.072-5.296,1.355c-1.923-0.791-3.902-1.469-5.864-2.035    c-1.997-0.564-3.994-1.018-6.029-1.357c-2.148-0.377-3.657-2.109-3.847-4.184l-2.601-19.639l-4.373-0.076l-3.316,19.752    c-0.341,2.074-2.036,3.619-4.033,3.846c-2.018,0.264-4.036,0.679-5.994,1.168c-1.962,0.49-3.941,1.094-5.92,1.81    c-2.015,0.755-4.24-0.038-5.408-1.733l-12.044-15.682l-3.826,2.148l7.03,18.773c0.716,1.922,0.06,4.033-1.506,5.238    c-1.604,1.244-3.166,2.64-4.636,4.072c-1.492,1.432-2.923,2.939-4.261,4.561c-1.396,1.658-3.695,2.073-5.559,1.168l-18.263-7.539    l-2.264,3.77l15.456,12.742c1.583,1.318,2.074,3.467,1.337,5.276c-0.772,1.923-1.45,3.921-2.015,5.881    c-0.565,1.997-1.018,3.996-1.375,6.031c-0.358,2.111-2.113,3.657-4.166,3.845l-19.639,2.602L137.184,294.92z M283.179,181.797    v-69.511h9.234v69.511H283.179z M226.069,145.307h17.982c5.956,0,10.157-1.131,12.666-3.316c2.484-2.225,3.73-5.353,3.73-9.387    c0-2.864-0.716-5.391-2.187-7.463c-1.488-2.035-3.432-3.431-5.805-4.109c-1.565-0.377-4.429-0.604-8.595-0.604h-17.793V145.307z     M216.854,181.797v-69.511h26.254c4.597,0,8.142,0.226,10.574,0.641c3.411,0.565,6.275,1.659,8.594,3.242    c2.316,1.62,4.184,3.845,5.598,6.71c1.394,2.864,2.092,6.031,2.092,9.461c0,5.881-1.867,10.895-5.636,14.965    c-3.77,4.109-10.574,6.145-20.412,6.145h-17.849v28.348H216.854z M164.474,153.262h23.675l-7.24-19.263    c-2.187-5.881-3.843-10.706-4.973-14.551c-0.961,4.562-2.243,9.009-3.846,13.419L164.474,153.262z M144.459,181.797l26.668-69.511    h10.122l28.311,69.511h-10.479l-8.03-21.072h-29.29l-7.539,21.072H144.459z"
   style="fill-rule:evenodd;clip-rule:evenodd;fill:#00457c;fill-opacity:1"
   id="path2" />

</g>

</g>

<g
   id="Layer_1" />

</svg>
